<?xml version="1.0" encoding="UTF-8" standalone="no"?>
<!DOCTYPE svg PUBLIC "-//W3C//DTD SVG 1.1//EN" "http://www.w3.org/Graphics/SVG/1.1/DTD/svg11.dtd">
<svg version="1.1" xmlns="http://www.w3.org/2000/svg" xmlns:xlink="http://www.w3.org/1999/xlink" preserveAspectRatio="xMidYMid meet" viewBox="0 0 640 640" width="640" height="640"><defs><path d="M530.13 461.87L320 586.67L109.87 461.87L109.87 75.73L320 53.33L322.13 53.33L530.13 75.73L530.13 461.87ZM446.93 400L320 475.73L194.13 401.07L194.13 381.87L320 456.53L320 436.27L194.13 360.53L194.13 341.33L318.93 416L318.93 396.8L136.53 288L136.53 445.87L320 554.67L503.47 445.87L503.47 284.8L446.93 318.93L446.93 400ZM318.93 374.4L349.87 356.27L318.93 338.13L318.93 318.93L364.8 346.67L379.73 337.07L317.87 300.8L317.87 281.6L395.73 327.47L409.6 320L411.73 318.93L412.8 318.93L318.93 262.4L318.93 243.2L428.8 308.27L452.27 294.4L502.4 264.53L318.93 157.87L137.6 266.67L318.93 374.4ZM136.53 245.33L318.93 136.53L503.47 245.33L503.47 100.27L320 81.07L136.53 100.27L136.53 245.33Z" id="e3ZNFMZ6iG"></path></defs><g><g><g><use xlink:href="#e3ZNFMZ6iG" opacity="1" fill="#d22856" fill-opacity="1"></use><g><use xlink:href="#e3ZNFMZ6iG" opacity="1" fill-opacity="0" stroke="#000000" stroke-width="1" stroke-opacity="0"></use></g></g></g></g></svg>